<?xml version="1.0" encoding="UTF-8" standalone="no"?>
<svg width="130px" height="129px" viewBox="0 0 130 129" version="1.1" xmlns="http://www.w3.org/2000/svg" xmlns:xlink="http://www.w3.org/1999/xlink" xmlns:sketch="http://www.bohemiancoding.com/sketch/ns">
    <!-- Generator: Sketch 3.0.4 (8054) - http://www.bohemiancoding.com/sketch -->
    <title>Slice 2</title>
    <desc>Created with Sketch.</desc>
    <defs></defs>
    <g id="Page-1" stroke="none" stroke-width="1" fill="none" fill-rule="evenodd" sketch:type="MSPage">
        <path d="M62.5,67 L35.5088758,67 C34.1108398,67 33,65.8807119 33,64.5 C33,63.1096621 34.123262,62 35.5088758,62 L62.5,62 L62.5,35.0088758 C62.5,33.6108398 63.6192881,32.5 65,32.5 C66.3903379,32.5 67.5,33.623262 67.5,35.0088758 L67.5,62 L94.4911242,62 C95.8891602,62 97,63.1192881 97,64.5 C97,65.8903379 95.876738,67 94.4911242,67 L67.5,67 L67.5,93.9911242 C67.5,95.3891602 66.3807119,96.5 65,96.5 C63.6096621,96.5 62.5,95.376738 62.5,93.9911242 L62.5,67 Z" id="Rectangle-239" fill="#ffffff" sketch:type="MSShapeGroup" transform="translate(65.000000, 64.500000) rotate(-315.000000) translate(-65.000000, -64.500000) "></path>
    </g>
</svg>