<?xml version="1.0" encoding="utf-8"?>
<!-- Generator: Adobe Illustrator 16.0.0, SVG Export Plug-In . SVG Version: 6.00 Build 0)  -->
<!DOCTYPE svg PUBLIC "-//W3C//DTD SVG 1.1//EN" "http://www.w3.org/Graphics/SVG/1.1/DTD/svg11.dtd">
<svg version="1.1" id="Layer_1" xmlns="http://www.w3.org/2000/svg" xmlns:xlink="http://www.w3.org/1999/xlink" x="0px" y="0px"
	 width="164px" height="105px" viewBox="0 0 164 105" enable-background="new 0 0 164 105" xml:space="preserve">
<path fill="#121212" d="M21.89,104.861h-3.25l-4.775-14.235l-4.686,14.235H5.905L0,85.167h3.899l3.979,14.036l4.406-14.036h3.448
	L20.25,99.23l3.953-14.063h3.335L21.89,104.861z M35.021,85.107h3.043l8.366,19.754h-3.705l-2.057-5.035h-8.446l-2.065,5.035h-3.5
	L35.021,85.107z M33.547,96.594h5.792l-2.88-7.008L33.547,96.594z M63.303,104.861L52.429,91.214v13.647H49.18V85.167h2.768
	l10.873,13.704V85.167h3.25v19.694H63.303z M85.278,104.861L74.411,91.214v13.647h-3.247V85.167h2.767l10.873,13.704V85.167h3.247
	v19.694H85.278z M99.137,85.107h3.051l8.356,19.754h-3.695l-2.06-5.035h-8.448l-2.06,5.035h-3.506L99.137,85.107z M97.668,96.594
	h5.786l-2.877-7.008L97.668,96.594z M116.188,88.094c-1.548,0-2.566,0.616-3.475,1.8l-1.921-2.166
	c1.023-1.635,3.058-2.87,5.599-2.87c3.754,0,5.931,2.251,5.931,4.951c0,5.511-5.708,5.373-5.112,8.921l-2.966,0.028
	c-0.817-4.953,4.602-4.532,4.602-8.246C118.845,89.189,117.718,88.094,116.188,88.094z M115.854,100.668
	c1.244,0,2.089,1.097,2.089,2.085c0,1.152-0.845,2.247-2.089,2.247c-1.384,0-2.232-1.095-2.232-2.247
	C113.621,101.765,114.47,100.668,115.854,100.668z M127.234,85.223c1.105-0.056,3.729-0.14,5.708-0.14
	c4.718,0,6.492,2.137,6.492,4.864c0,2.249-1.13,3.689-2.822,4.476v0.057c1.95,0.48,3.475,1.968,3.475,4.586
	c0,4.054-3.162,5.907-7.344,5.907c-1.81,0-4.347-0.055-5.509-0.135V85.223z M130.711,88.402v4.98h2.343
	c1.606,0,2.938-0.819,2.938-2.62c0-1.601-1.243-2.443-3.105-2.443C132.092,88.319,131.33,88.348,130.711,88.402z M130.711,96.393
	v5.205c0.475,0.056,1.297,0.141,2.286,0.141c2.341,0,3.615-0.982,3.615-2.84c0-1.661-1.274-2.506-3.441-2.506H130.711z
	 M144.306,85.167h11.443v3.235h-7.967v4.896h7.113v3.232h-7.113v5.094h8.243v3.236h-11.72V85.167z M161.931,100.668
	c1.22,0,2.069,1.097,2.069,2.085c0,1.152-0.85,2.247-2.069,2.247c-1.403,0-2.255-1.095-2.255-2.247
	C159.676,101.765,160.527,100.668,161.931,100.668z M160.127,85.167h3.447v12.888h-3.447V85.167z M81.998,56.808c0,0,0,0-0.004,0
	c-5.232,0-7.023,5.199-15.322,7.802c-4.016,1.258-9.288,0.974-13.617-0.313c-11.763-3.493-17.6-14.186-22.338-24.481
	c-3.534-7.68-17.307-39.368-17.483-39.789c-0.008-0.022,0.01-0.032,0.031-0.022c0.521,0.284,55.45,29.715,55.45,29.715
	l13.278-10.506l0.004,0.003l0.007-0.003L95.287,29.72c0,0,54.926-29.432,55.444-29.715c0.021-0.01,0.039,0,0.029,0.022
	c-0.172,0.421-13.945,32.109-17.477,39.789c-4.738,10.295-10.58,20.988-22.34,24.481c-4.328,1.287-9.599,1.571-13.619,0.313
	c-8.301-2.603-10.091-7.802-15.32-7.802C82.005,56.808,82.005,56.808,81.998,56.808z M45.232,39.937c0,0,1.361,5.244,1.817,6.696
	c1.81,5.762,5.732,10.92,11.946,12.389c3.707,0.876,7.196,0.177,9.022-1.19c2.145-1.602,2.867-3.383,3.221-5.971L45.232,39.937z
	 M92.759,51.86c0.352,2.588,1.078,4.369,3.221,5.971c1.827,1.367,5.317,2.066,9.019,1.19c6.222-1.469,10.14-6.626,11.951-12.389
	c0.457-1.452,1.821-6.696,1.821-6.696L92.759,51.86z"/>
</svg>
