<?xml version="1.0" encoding="utf-8"?>
<!-- Generated by IcoMoon.io -->
<!DOCTYPE svg PUBLIC "-//W3C//DTD SVG 1.1//EN" "http://www.w3.org/Graphics/SVG/1.1/DTD/svg11.dtd">
<svg version="1.1" xmlns="http://www.w3.org/2000/svg" xmlns:xlink="http://www.w3.org/1999/xlink" width="80" height="80" viewBox="0 0 80 80">
<g>
</g>
	<path d="M77.414 76.586l-25.792-25.792c5.406-5.616 8.378-12.976 8.378-20.794 0-8.013-3.12-15.547-8.787-21.213s-13.2-8.787-21.213-8.787c-8.013 0-15.547 3.12-21.213 8.787s-8.787 13.2-8.787 21.213c0 8.013 3.12 15.547 8.787 21.213s13.2 8.787 21.213 8.787c6.864 0 13.375-2.291 18.663-6.509l25.923 25.923c0.39 0.39 0.902 0.586 1.414 0.586s1.024-0.195 1.414-0.586c0.781-0.781 0.781-2.047 0-2.828zM4 30c0-14.336 11.664-26 26-26s26 11.664 26 26-11.664 26-26 26-26-11.664-26-26z" fill="#E3E3E3"></path>
</svg>
